HIERARCHY
ROOT Hips
{
	OFFSET -0.001795 -0.223333 0.028219
	CHANNELS 6 Xposition Yposition Zposition Zrotation Yrotation Xrotation 
	JOINT LeftUpLeg
	{
		OFFSET 0.069520 -0.091406 -0.006815
		CHANNELS 3 Zrotation Yrotation Xrotation
		JOINT LeftLeg
		{
			OFFSET 0.034277 -0.375199 -0.004496
			CHANNELS 3 Zrotation Yrotation Xrotation
			JOINT LeftFoot
			{
				OFFSET -0.013596 -0.397961 -0.043693
				CHANNELS 3 Zrotation Yrotation Xrotation
				JOINT LeftToe
				{
					OFFSET 0.026358 -0.055791 0.119288
					CHANNELS 3 Zrotation Yrotation Xrotation
					End Site
					{
						OFFSET 0.000000 0.000000 0.000000
					}
				}
			}
		}
	}
	JOINT RightUpLeg
	{
		OFFSET -0.067670 -0.090522 -0.004320
		CHANNELS 3 Zrotation Yrotation Xrotation
		JOINT RightLeg
		{
			OFFSET -0.038290 -0.382569 -0.008850
			CHANNELS 3 Zrotation Yrotation Xrotation
			JOINT RightFoot
			{
				OFFSET 0.015774 -0.398415 -0.042312
				CHANNELS 3 Zrotation Yrotation Xrotation
				JOINT RightToe
				{
					OFFSET -0.025372 -0.048144 0.123348
					CHANNELS 3 Zrotation Yrotation Xrotation
					End Site
					{
						OFFSET 0.000000 0.000000 0.000000
					}
				}
			}
		}
	}
	JOINT Spine
	{
		OFFSET -0.002533 0.108963 -0.026696
		CHANNELS 3 Zrotation Yrotation Xrotation
		JOINT Spine1
		{
			OFFSET 0.005487 0.135180 0.001092
			CHANNELS 3 Zrotation Yrotation Xrotation
			JOINT Spine2
			{
				OFFSET 0.001457 0.052922 0.025425
				CHANNELS 3 Zrotation Yrotation Xrotation
				JOINT Neck
				{
					OFFSET -0.002778 0.213870 -0.042857
					CHANNELS 3 Zrotation Yrotation Xrotation
					JOINT Head
					{
						OFFSET 0.005152 0.064970 0.051349
						CHANNELS 3 Zrotation Yrotation Xrotation
						End Site
						{
							OFFSET 0.000000 0.000000 0.000000
						}
					}
				}
				JOINT LeftShoulder
				{
					OFFSET 0.078845 0.121749 -0.034090
					CHANNELS 3 Zrotation Yrotation Xrotation
					JOINT LeftArm
					{
						OFFSET 0.090977 0.030469 -0.008868
						CHANNELS 3 Zrotation Yrotation Xrotation
						JOINT LeftForeArm
						{
							OFFSET 0.259612 -0.012772 -0.027456
							CHANNELS 3 Zrotation Yrotation Xrotation
							JOINT LeftHand
							{
								OFFSET 0.249234 0.008986 -0.001171
								CHANNELS 3 Zrotation Yrotation Xrotation
								End Site
								{
									OFFSET 0.000000 0.000000 0.000000
								}
							}
						}
					}
				}
				JOINT RightShoulder
				{
					OFFSET -0.081759 0.118833 -0.038615
					CHANNELS 3 Zrotation Yrotation Xrotation
					JOINT RightArm
					{
						OFFSET -0.096012 0.032551 -0.009143
						CHANNELS 3 Zrotation Yrotation Xrotation
						JOINT RightForeArm
						{
							OFFSET -0.253742 -0.013329 -0.021401
							CHANNELS 3 Zrotation Yrotation Xrotation
							JOINT RightHand
							{
								OFFSET -0.255298 0.007772 -0.005559
								CHANNELS 3 Zrotation Yrotation Xrotation
								End Site
								{
									OFFSET 0.000000 0.000000 0.000000
								}
							}
						}
					}
				}
			}
		}
	}
}
MOTION
Frames: 16
Frame Time: 0.050000
-0.872236 0.737040 3.196342 2.255998 -31.332485 24.692169 0.255277 6.272600 -65.920753 11.059707 -9.268750 110.240837 -4.553977 -1.643461 13.169374 0.000000 0.000000 0.000000 -9.104592 7.925858 -48.537985 29.919309 -10.182613 72.468570 -17.935327 -51.088032 -8.457913 0.000000 0.000000 0.000000 -5.014918 5.911307 41.965558 14.586431 -1.840929 -25.839011 0.871038 7.675371 28.528690 -12.327756 7.269625 -31.126002 0.000000 0.000000 0.000000 -42.021406 -4.686387 4.139542 -29.955118 -8.256196 -4.230773 -9.583446 -70.676139 11.394643 0.000000 0.000000 0.000000 23.849365 29.923093 15.803061 8.025613 29.655609 -1.894016 -62.698209 57.092546 -33.274871 0.000000 0.000000 0.000000 
-0.964286 0.775356 3.296547 -0.279691 -33.890009 23.836883 -3.425287 8.126771 -79.910922 5.113865 -4.295715 105.843975 1.835295 5.213595 3.357472 0.000000 0.000000 0.000000 -3.314391 5.604160 -33.447796 22.565526 -0.777036 67.867488 -12.622571 -33.654221 -4.539072 0.000000 0.000000 0.000000 -14.052791 9.466892 35.846076 15.715053 -2.627637 -21.741147 2.332015 9.563225 25.302556 -12.073314 7.418005 -27.026711 0.000000 0.000000 0.000000 -45.250578 -3.706755 2.396901 -24.975514 -2.944843 -4.110123 -10.190363 -69.388955 10.670617 0.000000 0.000000 0.000000 29.259998 29.416812 17.166214 10.213265 28.866549 -1.475428 -74.509631 68.410257 -49.960156 0.000000 0.000000 0.000000 
-1.057696 0.795276 3.396952 -3.669446 -35.799259 22.311492 -2.473900 11.050057 -82.182682 -0.076451 2.827420 90.928258 6.293744 10.515869 -9.847540 0.000000 0.000000 0.000000 1.775439 3.747831 -23.415499 19.787507 3.587905 71.072740 -10.117789 -25.101213 6.515351 0.000000 0.000000 0.000000 -21.079031 11.225111 29.609640 14.251569 -3.222868 -17.024166 3.424212 9.637699 21.731175 -8.818162 5.282771 -26.436525 0.000000 0.000000 0.000000 -41.365750 -4.170016 3.202040 -25.253126 -1.183705 -4.203770 8.693567 -66.674438 -2.072288 0.000000 0.000000 0.000000 30.500794 25.869873 14.154100 22.435397 27.948261 0.780537 -111.607672 80.444358 -97.066588 0.000000 0.000000 0.000000 
-1.145131 0.792815 3.500293 -5.295728 -35.129049 17.291450 -0.806938 9.423132 -71.422698 -0.124739 5.473192 76.069043 4.053313 3.827688 -13.691036 0.000000 0.000000 0.000000 2.604075 2.991640 -19.900717 26.536956 -0.946669 78.916651 -11.156499 -25.892230 12.921807 0.000000 0.000000 0.000000 -23.903578 11.325323 27.147865 11.187097 -2.839862 -16.528146 2.828144 2.731987 21.915720 -5.753680 2.479399 -32.999869 0.000000 0.000000 0.000000 -38.543148 -5.531171 8.234352 -25.504700 -10.511600 -3.649340 14.402971 -58.191815 -4.203890 0.000000 0.000000 0.000000 22.006426 23.243164 8.081615 43.450787 23.882778 3.398310 168.609912 78.642046 166.428296 0.000000 0.000000 0.000000 
-1.218583 0.775222 3.607823 -9.112940 -33.950824 10.444298 1.718876 5.406026 -52.019428 6.195584 4.474758 74.527480 4.009103 -0.609379 -24.794911 0.000000 0.000000 0.000000 5.633094 3.913562 -21.699033 30.525291 -5.888329 88.004409 -15.273340 -36.819596 1.753863 0.000000 0.000000 0.000000 -23.224210 10.594576 28.167391 12.705427 -2.910942 -19.629520 -2.200850 -7.008629 26.454266 2.225159 -2.849044 -34.500345 0.000000 0.000000 0.000000 -36.513980 -4.709167 12.197773 -21.758395 -19.602407 -3.432666 23.100396 -49.896067 -7.310176 0.000000 0.000000 0.000000 21.473273 26.081713 5.858506 52.499189 15.353523 1.238967 143.521131 73.745642 125.158269 0.000000 0.000000 0.000000 
-1.268049 0.759086 3.717726 -14.102036 -32.280505 8.385021 3.284716 2.503729 -36.914413 7.915865 5.081431 71.494450 6.710162 4.035295 -41.831709 0.000000 0.000000 0.000000 1.792514 9.713559 -41.325020 36.325177 -17.485934 90.293532 -17.961146 -48.010882 -5.668566 0.000000 0.000000 0.000000 -17.990562 7.455186 27.420171 11.324560 -2.762814 -19.249103 -5.113022 -15.761864 28.114121 7.506612 -6.604416 -34.130405 0.000000 0.000000 0.000000 -35.259260 -7.148234 17.635227 -8.271602 -25.658684 -3.308756 22.315966 -44.059804 -7.486938 0.000000 0.000000 0.000000 18.448372 21.281472 -0.013882 54.737014 2.804022 -3.851229 139.389418 67.885751 105.918175 0.000000 0.000000 0.000000 
-1.294932 0.768625 3.834631 -17.018305 -32.364375 8.633502 4.957643 0.922875 -21.558892 4.934096 8.063552 63.152637 6.203532 8.817082 -43.617474 0.000000 0.000000 0.000000 -6.080467 13.739187 -59.537907 32.986773 -14.901792 78.652342 -17.630264 -47.692036 -6.385296 0.000000 0.000000 0.000000 -13.506088 5.039772 25.204111 17.395843 -3.119494 -22.749853 -13.305811 -25.803428 32.620814 6.386930 -7.341564 -37.760324 0.000000 0.000000 0.000000 -28.934916 -5.982852 18.103441 -5.297345 -28.558701 -3.533664 33.324372 -50.072750 -12.947031 0.000000 0.000000 0.000000 11.861263 13.435860 -4.070941 44.311221 1.848996 -3.624647 157.361478 68.527259 124.589915 0.000000 0.000000 0.000000 
-1.308775 0.818864 3.961849 -20.648887 -30.900938 11.243338 3.693157 -0.074957 -7.502331 2.216910 6.485979 49.470305 3.709777 6.247919 -30.406016 0.000000 0.000000 0.000000 -15.887186 11.746418 -71.436839 34.283669 -14.529994 57.865936 -20.909540 -45.570586 10.460309 0.000000 0.000000 0.000000 -5.922924 2.237579 23.966227 20.239103 -2.638357 -25.850846 -17.141471 -31.825710 36.599696 1.096956 -5.851108 -40.627376 0.000000 0.000000 0.000000 -19.493117 -6.861105 15.317040 -11.257973 -35.241689 -1.875695 60.113094 -57.424210 -25.635780 0.000000 0.000000 0.000000 1.923803 4.439161 -2.897157 39.151522 5.261388 -3.646195 -171.678477 77.615225 164.455605 0.000000 0.000000 0.000000 
-1.318838 0.886759 4.088783 -21.338831 -28.905520 14.823085 1.549679 -0.396576 -7.934204 1.524408 7.196364 51.720938 1.731396 2.896527 -5.158188 0.000000 0.000000 0.000000 -19.485475 9.481173 -73.544146 38.549292 -15.595556 48.724915 -21.569020 -42.921748 19.476313 0.000000 0.000000 0.000000 -0.688187 0.584312 22.660418 22.431743 -2.334897 -27.386216 -18.747477 -34.128095 36.462805 -2.725897 -4.023190 -41.597301 0.000000 0.000000 0.000000 -13.692822 -4.326283 10.903511 -19.318845 -41.326562 1.933070 89.213774 -64.647710 -45.299735 0.000000 0.000000 0.000000 3.508065 4.950406 -4.383708 31.902816 -0.403770 -2.733440 -154.922966 75.693277 -173.993813 0.000000 0.000000 0.000000 
-1.332979 0.938803 4.198471 -19.542619 -28.712112 16.490714 -0.983755 -0.795559 -18.902872 4.536988 8.523262 67.013556 -1.443077 -0.847931 5.980494 0.000000 0.000000 0.000000 -9.304841 12.519500 -63.709481 36.001159 -12.623594 51.476342 -19.426018 -43.020948 12.425500 0.000000 0.000000 0.000000 -1.092430 0.648011 22.738012 22.618403 -4.150628 -20.642516 -8.694425 -27.080796 24.526230 -5.517895 -1.685262 -38.025047 0.000000 0.000000 0.000000 -9.972373 -7.658512 9.227418 -34.709673 -42.164626 8.022389 125.821636 -67.462297 -80.286605 0.000000 0.000000 0.000000 9.219888 2.992207 -6.303101 27.842555 -8.985026 -3.540261 -158.770914 77.442280 -170.068851 0.000000 0.000000 0.000000 
-1.353570 0.958037 4.290967 -14.700718 -26.382742 17.420764 -3.688610 -0.585567 -39.953341 9.283383 2.049201 83.885095 -3.244319 -7.157110 -0.556650 0.000000 0.000000 0.000000 -3.618660 9.689322 -49.573070 34.995548 -11.109369 54.003364 -18.125127 -36.815806 21.983164 0.000000 0.000000 0.000000 -4.647696 1.996629 26.194811 21.976797 -4.179788 -20.452467 -3.420988 -19.374210 21.054228 -15.755056 5.678189 -26.775268 0.000000 0.000000 0.000000 -14.582306 -4.159858 8.058313 -50.062709 -44.171254 13.099005 168.359335 -71.454430 -135.020243 0.000000 0.000000 0.000000 16.858130 6.560882 -7.041010 30.082368 -13.827150 -4.183364 -152.997168 78.912185 -158.634893 0.000000 0.000000 0.000000 
-1.375567 0.936700 4.371735 -8.382644 -26.745561 17.470355 -6.866319 0.303364 -67.812126 8.231787 -5.644554 97.527382 3.109154 -5.013963 -20.976929 0.000000 0.000000 0.000000 -4.714293 5.600616 -36.606304 25.700059 -5.184348 53.918138 -10.006246 -25.588054 13.107150 0.000000 0.000000 0.000000 -8.988833 5.771212 36.986103 21.090175 -3.333404 -24.111092 -0.702857 -4.955033 19.755633 -14.018830 8.703127 -15.255162 0.000000 0.000000 0.000000 -25.931294 -3.912797 6.987107 -43.339736 -38.089664 5.385800 -160.162581 -72.974405 173.034720 0.000000 0.000000 0.000000 30.565703 10.610069 -3.271320 25.717942 -3.997200 -1.974535 -117.645314 74.972014 -104.501555 0.000000 0.000000 0.000000 
-1.396905 0.893522 4.448797 -5.554853 -32.890229 17.892135 -8.393560 5.251436 -98.406030 7.044583 -15.024348 96.383096 8.239589 2.909365 -42.887469 0.000000 0.000000 0.000000 -4.157632 4.045426 -27.858091 18.984148 0.454496 53.973622 -7.395605 -16.822953 -7.823798 0.000000 0.000000 0.000000 -14.801899 13.773169 47.669838 20.916231 -2.979009 -26.324189 0.188510 5.476871 22.145082 -13.210909 8.613357 -20.741704 0.000000 0.000000 0.000000 -32.409073 -8.367312 6.278118 -33.131535 -32.752320 1.776139 113.634533 -82.055404 -96.498561 0.000000 0.000000 0.000000 29.076023 18.251325 8.433903 18.048605 14.796911 -0.945454 -96.336598 56.150569 -57.343414 0.000000 0.000000 0.000000 
-1.420200 0.852302 4.537655 -5.446969 -35.600918 24.370320 -10.240539 4.917561 -121.715090 12.863753 -26.238209 81.223192 9.458654 4.912056 -46.394248 0.000000 0.000000 0.000000 -7.040446 2.243601 -17.318031 14.501658 2.300713 45.622526 -7.927593 -8.479949 -18.403406 0.000000 0.000000 0.000000 -17.301067 19.426174 53.211318 18.965459 -2.320567 -28.327557 0.655072 5.573055 22.895860 -15.216638 10.770331 -12.824959 0.000000 0.000000 0.000000 -38.908375 -11.476409 8.488272 -16.500595 -29.216084 -1.153408 58.218596 -64.602215 -33.513967 0.000000 0.000000 0.000000 23.078603 24.897811 13.309238 3.262045 25.316056 -2.399453 -81.952217 38.307088 -29.141047 0.000000 0.000000 0.000000 
-1.446411 0.826905 4.654391 -11.528830 -36.467980 35.329926 -9.819127 3.541818 -135.113227 12.613771 -36.604056 90.621014 10.270554 8.997833 -59.969139 0.000000 0.000000 0.000000 -8.569331 1.608899 -4.457990 9.552367 1.979493 31.998710 -13.002563 -3.632216 -36.412407 0.000000 0.000000 0.000000 -20.576641 25.817186 57.313440 25.808044 -1.970805 -32.695913 -0.299064 12.057106 26.455304 -16.342744 10.838743 -19.181576 0.000000 0.000000 0.000000 -32.848473 -17.380748 8.347544 -17.535285 -24.568901 -1.023555 51.408789 -49.721415 -21.531270 0.000000 0.000000 0.000000 25.609595 26.566049 19.386861 -11.214912 23.571331 -4.060103 -81.437023 31.637219 -22.606793 0.000000 0.000000 0.000000 
-1.470234 0.823853 4.795251 -13.613847 -29.880869 44.324717 -8.601989 -6.326951 -139.226516 -3.219224 -29.473412 128.037143 6.341374 19.361442 -65.145985 0.000000 0.000000 0.000000 -8.563066 1.728539 3.330468 3.374114 3.277949 33.646018 -12.747595 -7.666168 -37.336339 0.000000 0.000000 0.000000 -20.471225 24.907208 58.597431 27.305446 -0.126734 -38.219473 5.597226 9.532846 37.780454 -19.062325 13.982929 -13.162282 0.000000 0.000000 0.000000 -44.756026 -19.593211 11.924349 -3.717707 -25.253364 -3.246767 48.253937 -39.287358 -15.157805 0.000000 0.000000 0.000000 21.508188 29.040225 20.664951 -11.674428 20.149861 -3.728545 -78.198487 26.615401 -17.761572 0.000000 0.000000 0.000000 
